<?xml version="1.0" encoding="utf-8"?>
<!-- Generator: Adobe Illustrator 27.1.0, SVG Export Plug-In . SVG Version: 6.00 Build 0)  -->
<svg version="1.1" id="Capa_1" xmlns="http://www.w3.org/2000/svg" xmlns:xlink="http://www.w3.org/1999/xlink" x="0px" y="0px"
	 viewBox="0 0 1200 237.78" style="enable-background:new 0 0 1200 237.78;" xml:space="preserve">
<style type="text/css">
	.st0{fill:#0C3A76;}
</style>
<g>
	<path class="st0" d="M357.71,66.49V46.7h-74.96v122.08h23.09v-51.25h42.53v-19.6h-42.53V66.49H357.71z"/>
	<path class="st0" d="M396.39,147.31c-3.12,2.4-4.21,3.15-5.69,3.88c-2.94,1.66-6.22,2.59-8.98,2.59c-5.5,0-8.79-3.33-8.79-8.87
		c0-2.22,0.37-3.89,1.64-7.21l21.81-7.21V147.31z M425.16,153.24c-5.87-0.56-6.78-1.85-6.78-9.62v-35.89
		c0-18.86-9.16-27.38-29.51-27.38c-23.1,0-36.29,8.68-36.29,23.85c0,2.4,0.18,3.33,1.09,5.93l20.89-4.62
		c-0.37-1.12-0.55-1.47-0.55-2.22c0-4.25,5.32-7.77,11.91-7.77c7.15,0,10.45,4.25,10.45,13.51v7.21l-24.19,7.03
		c-12.47,3.69-17.6,7.77-20.54,15.73c-0.92,2.78-1.46,5.74-1.46,8.69c0,13.68,10.27,23.31,24.75,23.31
		c8.62,0,15.77-3.15,23.82-10.55c3.84,7.58,7.33,9.43,18.32,9.43h4.58l3.49-16.64H425.16z"/>
	<path class="st0" d="M505.64,162.86l-8.07-17.95c-9.34,5.55-14.66,7.4-21.99,7.4c-13.2,0-22.37-10.55-22.37-25.9
		c0-15.35,10.27-27.56,24.75-27.56c6.59,0,10.82,1.66,17.23,6.65l10.45-16.83c-7.15-4.25-10.08-5.55-16.31-7.03
		c-4.58-0.93-9.16-1.47-13.93-1.47c-27.13,0-45.27,18.67-45.27,46.42c0,27.75,17.05,44.58,43.44,44.58c8.44,0,17.05-1.66,24.93-4.99
		c1.64-0.74,4.03-1.85,7.15-3.33L505.64,162.86z"/>
	<path class="st0" d="M558.79,160.45l-6.96-16.1c-6.06,4.06-9.16,5.37-11.73,5.37c-3.49,0-4.4-2.78-4.4-12.39V99.05h18.51V82.78
		h-18.51V57.06h-20.72v25.72L502.34,85v14.05h12.65v53.45c0,12.77,5.32,18.67,16.68,18.67c6.06,0,12.65-2.03,19.06-5.74
		c2.38-1.47,5.13-3.15,8.07-4.99V160.45z"/>
	<path class="st0" d="M640,168.78v-86h-22v51.79l-2.94,3.15c-9.53,10.17-15.96,14.98-20.72,14.98c-5.13,0-6.96-4.06-6.96-14.61
		V82.78h-21.99v63.25c0,16.27,7.7,24.23,23.09,24.23c10.82,0,19.24-4.44,29.51-15.91v14.42h22L640,168.78z"/>
	<path class="st0" d="M710.75,87.59c-3.49-4.06-7.33-6.11-11.91-6.11c-6.59,0-11.91,5.55-20.17,20.16l-0.92-18.86h-18.87v86h21.81
		v-39.4c0-6.47,1.83-11.46,5.87-16.46c3.31-4.06,7.15-6.47,10.64-6.47c2.38,0,4.21,0.74,6.59,2.59l6.96-21.45V87.59z"/>
	<path class="st0" d="M756.75,147.31c-3.12,2.4-4.21,3.15-5.69,3.88c-2.94,1.66-6.22,2.59-8.98,2.59c-5.5,0-8.79-3.33-8.79-8.87
		c0-2.22,0.37-3.89,1.64-7.21l21.81-7.21V147.31z M785.52,153.24c-5.87-0.56-6.78-1.85-6.78-9.62v-35.89
		c0-18.86-9.16-27.38-29.51-27.38c-23.1,0-36.29,8.68-36.29,23.85c0,2.4,0.18,3.33,1.11,5.93l20.89-4.62
		c-0.37-1.12-0.55-1.47-0.55-2.22c0-4.25,5.32-7.77,11.91-7.77c7.15,0,10.45,4.25,10.45,13.51v7.21l-24.19,7.03
		c-12.47,3.69-17.6,7.77-20.54,15.73c-0.92,2.78-1.46,5.74-1.46,8.69c0,13.68,10.27,23.31,24.75,23.31
		c8.61,0,15.77-3.15,23.82-10.55c3.84,7.58,7.33,9.43,18.32,9.43h4.58L785.52,153.24z"/>
	<path class="st0" d="M861.41,88.69c-7.7-4.44-10.64-5.55-18.69-7.21c-5.32-1.1-10.08-1.66-14.11-1.66
		c-20.72,0-34.65,10.92-34.65,27c0,11.46,6.96,19.6,22,25.34l14.66,5.74c5.87,2.22,8.61,5.18,8.61,9.06c0,4.62-4.95,7.4-13.37,7.4
		c-3.12,0-6.22-0.56-9.53-1.66c-6.22-2.03-9.71-3.69-18.32-9.06l-6.96,17.95c9.35,4.81,13.2,6.28,21.07,7.96
		c5.13,1.12,9.71,1.66,13.93,1.66c20.54,0,34.09-10.36,34.09-26.07c0-7.58-3.49-15.35-8.79-19.05c-3.84-2.96-16.12-8.52-25.65-11.83
		c-7.7-2.78-10.64-5.18-10.64-9.06c0-4.81,5.5-8.14,13.93-8.14c6.24,0,13.57,2.22,19.61,5.93c1.65,0.93,3.66,2.22,5.87,3.71
		l6.96-17.95L861.41,88.69z"/>
	<path class="st0" d="M939.14,121.8h-46.37l23.29-68.43l23.11,68.43H939.14z M965.53,168.78L922.28,43.2h-12.47l-43.43,125.59h10.82
		l12.47-37.55h52.59l12.47,37.55h10.82H965.53z"/>
	<path class="st0" d="M1042.16,123.83c0,21.64-12.1,38.65-31.71,38.65c-9.53,0-20.89-6.11-20.89-17.57v-36.43
		c6.96-9.24,15.22-17.39,27.68-17.39c15.04,0,24.94,14.8,24.94,32.74H1042.16z M1051.68,123.65c0-24.97-13.74-41.06-32.26-41.06
		c-11.92,0-19.43,2.78-29.88,16.27V85h-8.79v127.99h8.79v-50.5c5.68,6.47,12.65,8.52,22.36,8.52
		C1034.64,171,1051.68,150.84,1051.68,123.65z"/>
	<path class="st0" d="M1133.8,123.83c0,21.64-12.09,38.65-31.71,38.65c-9.53,0-20.89-6.11-20.89-17.57v-36.43
		c6.96-9.24,15.22-17.39,27.69-17.39c15.03,0,24.93,14.8,24.93,32.74H1133.8z M1143.33,123.65c0-24.97-13.75-41.06-32.27-41.06
		c-11.91,0-19.43,2.78-29.88,16.27V85h-8.79v127.99h8.79v-50.5c5.69,6.47,12.66,8.52,22.36,8.52
		C1126.29,171,1143.33,150.84,1143.33,123.65z"/>
	<path class="st0" d="M188.05,24.79H76.85L56.67,45.16v139.42l20.18,20.37h111.2l20.18-20.37V45.16L188.05,24.79z M107.18,178.45
		H81.92v-25.5h25.27V178.45z M132.45,126.46H81.93v-25.5h50.52V126.46z M182.97,75.63H81.93v-25.5h101.04V75.63z"/>
</g>
</svg>
